<svg class="diagram-root" style="background: #f5f6f6" xmlns="http://www.w3.org/2000/svg" xmlns:xlink="http://www.w3.org/1999/xlink"><style>.diagram-root { font-family: "Helvetica Neue", sans-serif; font-size: 12px; } .t { overflow: visible; } .t-bg { y: 40; fill: #fff;   } .th { fill: #005aa0;   } .tht { fill: #fff; font-size: 14px;  } .tf { fill: #323c46; overflow: visible; } .tf.pk { fill: #005aa0; font-weight: bold; } .tf.fk { font-weight: bold; } .ty { fill: #adb1b5; font-weight: normal; text-anchor: end; } .r { fill: transparent; stroke: #c3c3c3; stroke-width: 1; } .l { stroke: 1; } .i { fill: #c2c7ce; stroke: #c2c7ce; } .i.ix { fill: #afb3b6; stroke: #000; } .fa { fill: transparent; overflow: visible; } .fa .bg.hover { fill: #f7f7f7; } .c { cy: 12; r: 4; stroke: #d2d2dc; fill: #d2d2dc; } .hr { fill: transparent; stroke: #323c46; stroke-opacity: 0.035; stroke-width: 13; } .dc { stroke: #fa5a3c; fill: #fa5a3c; } .x { stroke: white; stroke-width: 1; } .hl .th { fill: #1b9bff; } .hl .tht {  } .fhl .bg { fill: #e7f4ff; } .fhls .bg {  } .r.hl { stroke: #1b9bff; } .dim { opacity: 0.25; }</style><g class="drawing-wrapper" transform="translate(-157.76444444444545, -49.74777777777783) scale(1,1)"><g class="rs"><path d="M 374.27 136.75 m -1, 0 a 1,1 0 1,0 2,0 a 1,1 0 1,0 -2,0 M 374.27 136.75 m -0.5, 0 a 0.5,0.5 0 1,0 1,0 a 0.5,0.5 0 1,0 -1,0  M374.27 136.75 L374.27 136.75 386.27 136.75 M 374.27 142.75 m -1, 0 a 1,1 0 1,0 2,0 a 1,1 0 1,0 -2,0 M 374.27 142.75 m -0.5, 0 a 0.5,0.5 0 1,0 1,0 a 0.5,0.5 0 1,0 -1,0  M374.27 142.75 L374.27 142.75 381.27 136.75 374.27 130.75 M 374.27 130.75 m -1, 0 a 1,1 0 1,0 2,0 a 1,1 0 1,0 -2,0 M 374.27 130.75 m -0.5, 0 a 0.5,0.5 0 1,0 1,0 a 0.5,0.5 0 1,0 -1,0  M386.27 136.75 Q 420.63 136.75, 454.98 137.22 T 523.69 137.68 M 535.69 137.68 m -1, 0 a 1,1 0 1,0 2,0 a 1,1 0 1,0 -2,0 M 535.69 137.68 m -0.5, 0 a 0.5,0.5 0 1,0 1,0 a 0.5,0.5 0 1,0 -1,0  M535.69 137.68 L535.69 137.68 523.69 137.68 M529.69 143.68 L529.69 143.68 529.69 131.68" id="h2813714659" class="r"></path><path d="M 374.27 161.75 m -1, 0 a 1,1 0 1,0 2,0 a 1,1 0 1,0 -2,0 M 374.27 161.75 m -0.5, 0 a 0.5,0.5 0 1,0 1,0 a 0.5,0.5 0 1,0 -1,0  M374.27 161.75 L374.27 161.75 386.27 161.75 M 374.27 167.75 m -1, 0 a 1,1 0 1,0 2,0 a 1,1 0 1,0 -2,0 M 374.27 167.75 m -0.5, 0 a 0.5,0.5 0 1,0 1,0 a 0.5,0.5 0 1,0 -1,0  M374.27 167.75 L374.27 167.75 381.27 161.75 374.27 155.75 M 374.27 155.75 m -1, 0 a 1,1 0 1,0 2,0 a 1,1 0 1,0 -2,0 M 374.27 155.75 m -0.5, 0 a 0.5,0.5 0 1,0 1,0 a 0.5,0.5 0 1,0 -1,0  M386.27 161.75 C 436.27 161.75, 443.38599999999997 312.12, 374.41 312.12 M 362.41 312.12 m -1, 0 a 1,1 0 1,0 2,0 a 1,1 0 1,0 -2,0 M 362.41 312.12 m -0.5, 0 a 0.5,0.5 0 1,0 1,0 a 0.5,0.5 0 1,0 -1,0  M362.41 312.12 L362.41 312.12 374.41 312.12 M368.41 318.12 L368.41 318.12 368.41 306.12" id="h3492990800" class="r"></path><path d="M 547.79 278.94 m -1, 0 a 1,1 0 1,0 2,0 a 1,1 0 1,0 -2,0 M 547.79 278.94 m -0.5, 0 a 0.5,0.5 0 1,0 1,0 a 0.5,0.5 0 1,0 -1,0  M547.79 278.94 L547.79 278.94 535.79 278.94 M 547.79 284.94 m -1, 0 a 1,1 0 1,0 2,0 a 1,1 0 1,0 -2,0 M 547.79 284.94 m -0.5, 0 a 0.5,0.5 0 1,0 1,0 a 0.5,0.5 0 1,0 -1,0  M547.79 284.94 L547.79 284.94 540.79 278.94 547.79 272.94 M 547.79 272.94 m -1, 0 a 1,1 0 1,0 2,0 a 1,1 0 1,0 -2,0 M 547.79 272.94 m -0.5, 0 a 0.5,0.5 0 1,0 1,0 a 0.5,0.5 0 1,0 -1,0  M535.79 278.94 Q 495.45 278.94, 455.1 295.53 T 374.41 312.12 M 362.41 312.12 m -1, 0 a 1,1 0 1,0 2,0 a 1,1 0 1,0 -2,0 M 362.41 312.12 m -0.5, 0 a 0.5,0.5 0 1,0 1,0 a 0.5,0.5 0 1,0 -1,0  M362.41 312.12 L362.41 312.12 374.41 312.12 M368.41 318.12 L368.41 318.12 368.41 306.12" id="h2664241205" class="r"></path><path d="M 742.3 303.94 m -1, 0 a 1,1 0 1,0 2,0 a 1,1 0 1,0 -2,0 M 742.3 303.94 m -0.5, 0 a 0.5,0.5 0 1,0 1,0 a 0.5,0.5 0 1,0 -1,0  M742.3 303.94 L742.3 303.94 754.3 303.94 M 742.3 309.94 m -1, 0 a 1,1 0 1,0 2,0 a 1,1 0 1,0 -2,0 M 742.3 309.94 m -0.5, 0 a 0.5,0.5 0 1,0 1,0 a 0.5,0.5 0 1,0 -1,0  M742.3 309.94 L742.3 309.94 749.3 303.94 742.3 297.94 M 742.3 297.94 m -1, 0 a 1,1 0 1,0 2,0 a 1,1 0 1,0 -2,0 M 742.3 297.94 m -0.5, 0 a 0.5,0.5 0 1,0 1,0 a 0.5,0.5 0 1,0 -1,0  M754.3 303.94 C 816.94 303.94, 812.2 137.68, 762.2 137.68 M 750.2 137.68 m -1, 0 a 1,1 0 1,0 2,0 a 1,1 0 1,0 -2,0 M 750.2 137.68 m -0.5, 0 a 0.5,0.5 0 1,0 1,0 a 0.5,0.5 0 1,0 -1,0  M750.2 137.68 L750.2 137.68 762.2 137.68 M756.2 143.68 L756.2 143.68 756.2 131.68" id="h3869915610" class="r"></path><path d="M 568.09 449.55 m -1, 0 a 1,1 0 1,0 2,0 a 1,1 0 1,0 -2,0 M 568.09 449.55 m -0.5, 0 a 0.5,0.5 0 1,0 1,0 a 0.5,0.5 0 1,0 -1,0  M568.09 449.55 L568.09 449.55 556.09 449.55 M 568.09 455.55 m -1, 0 a 1,1 0 1,0 2,0 a 1,1 0 1,0 -2,0 M 568.09 455.55 m -0.5, 0 a 0.5,0.5 0 1,0 1,0 a 0.5,0.5 0 1,0 -1,0  M568.09 455.55 L568.09 455.55 561.09 449.55 568.09 443.55 M 568.09 443.55 m -1, 0 a 1,1 0 1,0 2,0 a 1,1 0 1,0 -2,0 M 568.09 443.55 m -0.5, 0 a 0.5,0.5 0 1,0 1,0 a 0.5,0.5 0 1,0 -1,0  M556.09 449.55 Q 510.67 449.55, 465.25 380.84 T 374.41 312.12 M 362.41 312.12 m -1, 0 a 1,1 0 1,0 2,0 a 1,1 0 1,0 -2,0 M 362.41 312.12 m -0.5, 0 a 0.5,0.5 0 1,0 1,0 a 0.5,0.5 0 1,0 -1,0  M362.41 312.12 L362.41 312.12 374.41 312.12 M368.41 318.12 L368.41 318.12 368.41 306.12" id="h1973584162" class="r"></path><path d="M 358.3 528.6311111111115 m -1, 0 a 1,1 0 1,0 2,0 a 1,1 0 1,0 -2,0 M 358.3 528.6311111111115 m -0.5, 0 a 0.5,0.5 0 1,0 1,0 a 0.5,0.5 0 1,0 -1,0  M358.3 528.6311111111115 L358.3 528.6311111111115 370.3 528.6311111111115 M 358.3 534.6311111111115 m -1, 0 a 1,1 0 1,0 2,0 a 1,1 0 1,0 -2,0 M 358.3 534.6311111111115 m -0.5, 0 a 0.5,0.5 0 1,0 1,0 a 0.5,0.5 0 1,0 -1,0  M358.3 534.6311111111115 L358.3 534.6311111111115 365.3 528.6311111111115 358.3 522.6311111111115 M 358.3 522.6311111111115 m -1, 0 a 1,1 0 1,0 2,0 a 1,1 0 1,0 -2,0 M 358.3 522.6311111111115 m -0.5, 0 a 0.5,0.5 0 1,0 1,0 a 0.5,0.5 0 1,0 -1,0  M370.3 528.6311111111115 C 426.87600000000003 528.6311111111115, 424.41 312.12, 374.41 312.12 M 362.41 312.12 m -1, 0 a 1,1 0 1,0 2,0 a 1,1 0 1,0 -2,0 M 362.41 312.12 m -0.5, 0 a 0.5,0.5 0 1,0 1,0 a 0.5,0.5 0 1,0 -1,0  M362.41 312.12 L362.41 312.12 374.41 312.12 M368.41 318.12 L368.41 318.12 368.41 306.12" id="h3395534066" class="r"></path></g><g class="hrs"></g><g class="ts"><svg width="214.51" height="100" x="535.69" y="80.68" id="h3708248841" class="t"><rect height="40" width="214.51" class="th"></rect><text x="13" y="25" class="tht">Departments</text><rect height="60" width="214.51" class="t-bg" y="40"></rect><text x="13" y="61" class="tf pk">department_num<tspan x="201.51" class="ty">VARCHAR</tspan></text><path d="M7,14A2,2 0 0,1 5,12A2,2 0 0,1 7,10A2,2 0 0,1 9,12A2,2 0 0,1 7,14M12.65,10C11.83,7.67 9.61,6 7, 6A6, 6 0 0, 0 1, 12A6, 6 0 0, 0 7, 18C9.61, 18 11.83, 16.33 12.65, 14H17V18H21V14H23V10H12.65Z" class="i pk" transform="translate(123.71898437499999, 48) scale(0.65)"></path><text x="13" y="86" class="tf">department_name<tspan x="201.51" class="ty">VARCHAR</tspan></text></svg><svg width="194.51" height="150" x="179.76" y="79.75" id="h2082528223" class="t"><rect height="40" width="194.51" class="th"></rect><text x="13" y="25" class="tht">Departments_manager</text><rect height="110" width="194.51" class="t-bg" y="40"></rect><text x="13" y="61" class="tf fk">department_num<tspan x="181.51" class="ty">VARCHAR</tspan></text><text x="13" y="86" class="tf fk">employee_num<tspan x="181.51" class="ty">INT</tspan></text><text x="13" y="111" class="tf">from_date<tspan x="181.51" class="ty">VARCHAR</tspan></text><text x="13" y="136" class="tf">to_date<tspan x="181.51" class="ty">VARCHAR</tspan></text></svg><svg width="194.51" height="150" x="547.79" y="221.94" id="h2461610846" class="t"><rect height="40" width="194.51" class="th"></rect><text x="13" y="25" class="tht">Departments_employees</text><rect height="110" width="194.51" class="t-bg" y="40"></rect><text x="13" y="61" class="tf fk">employee_num<tspan x="181.51" class="ty">INT</tspan></text><text x="13" y="86" class="tf fk">department_num<tspan x="181.51" class="ty">VARCHAR</tspan></text><text x="13" y="111" class="tf">from_date<tspan x="181.51" class="ty">VARCHAR</tspan></text><text x="13" y="136" class="tf">to_date<tspan x="181.51" class="ty">VARCHAR</tspan></text></svg><svg width="167.38" height="200" x="195.03" y="255.12" id="h3299212598" class="t"><rect height="40" width="167.38" class="th"></rect><text x="13" y="25" class="tht">Employees</text><rect height="160" width="167.38" class="t-bg" y="40"></rect><text x="13" y="61" class="tf pk">employee_num<tspan x="154.38" class="ty">INT</tspan></text><path d="M7,14A2,2 0 0,1 5,12A2,2 0 0,1 7,10A2,2 0 0,1 9,12A2,2 0 0,1 7,14M12.65,10C11.83,7.67 9.61,6 7, 6A6, 6 0 0, 0 1, 12A6, 6 0 0, 0 7, 18C9.61, 18 11.83, 16.33 12.65, 14H17V18H21V14H23V10H12.65Z" class="i pk" transform="translate(115.049921875, 48) scale(0.65)"></path><text x="13" y="86" class="tf">birth_date<tspan x="154.38" class="ty">VARCHAR</tspan></text><text x="13" y="111" class="tf">first_name<tspan x="154.38" class="ty">VARCHAR</tspan></text><text x="13" y="136" class="tf">last_name<tspan x="154.38" class="ty">VARCHAR</tspan></text><text x="13" y="161" class="tf">gender<tspan x="154.38" class="ty">VARCHAR</tspan></text><text x="13" y="186" class="tf">hire_date<tspan x="154.38" class="ty">VARCHAR</tspan></text></svg><svg width="157.82" height="150" x="568.09" y="392.55" id="h3858243705" class="t"><rect height="40" width="157.82" class="th"></rect><text x="13" y="25" class="tht">Salaries</text><rect height="110" width="157.82" class="t-bg" y="40"></rect><text x="13" y="61" class="tf fk">employee_num<tspan x="144.82" class="ty">INT</tspan></text><text x="13" y="86" class="tf">salary<tspan x="144.82" class="ty">INT</tspan></text><text x="13" y="111" class="tf">from_date<tspan x="144.82" class="ty">VARCHAR</tspan></text><text x="13" y="136" class="tf">to_date<tspan x="144.82" class="ty">VARCHAR</tspan></text></svg><svg width="157.82" height="150" x="200.4788888888889" y="471.63111111111147" id="h3517680912" class="t"><rect height="40" width="157.82" class="th"></rect><text x="13" y="25" class="tht">Titles</text><rect height="110" width="157.82" class="t-bg" y="40"></rect><text x="13" y="61" class="tf fk">employee_num<tspan x="144.82" class="ty">INT</tspan></text><text x="13" y="86" class="tf">title<tspan x="144.82" class="ty">VARCHAR</tspan></text><text x="13" y="111" class="tf">from_date<tspan x="144.82" class="ty">VARCHAR</tspan></text><text x="13" y="136" class="tf">to_date<tspan x="144.82" class="ty">VARCHAR</tspan></text></svg></g></g><text class="qdbd-link" x="10" y="20">www.quickdatabasediagrams.com</text></svg>